<?xml version="1.0" encoding="utf-8"?>
<!-- Generator: Adobe Illustrator 27.5.0, SVG Export Plug-In . SVG Version: 6.00 Build 0)  -->
<svg version="1.1" xmlns="http://www.w3.org/2000/svg" xmlns:xlink="http://www.w3.org/1999/xlink" x="0px" y="0px"
	 viewBox="0 0 500 500" style="enable-background:new 0 0 500 500;" xml:space="preserve">
<g id="BACKGROUND">
	<g style="opacity:0.5;">
		<path style="opacity:0.2;fill:#91C5EB;" d="M500,500V335.207c-3.849,5.426-33.574,22.428-45.094,32.749
			c-81.342,72.869-49.68,108-46.44,132.044H500z"/>
		<path style="opacity:0.2;fill:#91C5EB;" d="M500,0H348.441c-8.228,7.081-15.628,14.46-22.041,21.84
			c-35.014,40.295-21.773,58.827-50.76,103.68c-55.991,86.636-139.842,70.796-235.44,140.4c-13.258,9.653-26.897,21.069-40.2,33.708
			V500h318.826c11.707-52.855-6.78-123.077,43.2-254.6c29.381-77.316,106.739-103.735,123.135-117.72
			c4.94-4.214,9.896-8.015,14.84-11.465V0z"/>
		<path style="opacity:0.3;fill:#91C5EB;" d="M472.736,263.558c5.623-7.905,7.544-15.351,8-17.242
			c5.269-21.839-4.309-50.818-17.062-52.492c-12.299-1.614-26.595,22.292-30.555,42.258c-3.538,17.841-0.899,43.008,10.407,46.569
			C453.313,285.733,466.891,271.775,472.736,263.558z"/>
		<path style="opacity:0.3;fill:#91C5EB;" d="M42.478,216.911c7.038-1.187,11.912-4.062,13.133-4.809
			c14.103-8.621,24.197-28.681,18.433-36.187c-5.559-7.239-25.435-2.239-37.882,6.089c-11.122,7.441-22.843,21.908-18.814,29.643
			C20.835,218.343,35.161,218.145,42.478,216.911z"/>
		<path style="opacity:0.3;fill:#91C5EB;" d="M475.086,177.956c2.394-2.178,3.549-4.468,3.832-5.052
			c3.268-6.745,2.203-16.871-1.835-18.322c-3.895-1.399-10.251,5.379-12.96,11.606c-2.419,5.564-3.346,13.955,0.087,15.918
			C467.18,183.806,472.597,180.22,475.086,177.956z"/>
		<g>
			<defs>
				<rect id="SVGID_1_" width="500" height="500"/>
			</defs>
			<clipPath id="SVGID_00000036230090894987057480000006385566969425126789_">
				<use xlink:href="#SVGID_1_"  style="overflow:visible;"/>
			</clipPath>
			<path style="opacity:0.2;clip-path:url(#SVGID_00000036230090894987057480000006385566969425126789_);fill:#91C5EB;" d="
				M131.255,108.553c28.275-4.618,47.895-16.056,52.813-19.026c56.788-34.309,97.72-114.614,74.74-144.862
				c-22.162-29.171-102.042-9.516-152.177,23.651C61.832-2.048,14.486,55.774,30.498,86.903
				C44.357,113.848,101.862,113.354,131.255,108.553z"/>
			
				<path style="opacity:0.3;clip-path:url(#SVGID_00000036230090894987057480000006385566969425126789_);fill:none;stroke:#91C5E9;stroke-width:1.4823;stroke-miterlimit:10;" d="
				M388.488,540.43c-17.54-38.094-33.457-90.581-15.39-140.817c23.452-65.209,85.581-74.952,130.034-134.666
				c30.348-40.767,55.563-108.996,34.053-229.655"/>
			
				<path style="opacity:0.3;clip-path:url(#SVGID_00000036230090894987057480000006385566969425126789_);fill:none;stroke:#91C5E9;stroke-width:1.4823;stroke-miterlimit:10;" d="
				M-106.659,286.464c7.311-41.296,24.163-93.49,67.649-124.458c56.448-40.198,113.043-12.777,183.61-36.486
				c48.176-16.186,107.794-57.86,158.922-169.248"/>
		</g>
	</g>
	
		<circle style="fill:none;stroke:#41007C;stroke-width:0.5;stroke-miterlimit:10;stroke-dasharray:4.6;" cx="250" cy="250" r="201.551"/>
</g>
<g id="OBJECTS">
	<g>
		<g>
			<path style="fill:#C2C6F5;" d="M358.028,405.983L358.028,405.983c56.458,0,102.227-45.768,102.227-102.227V180.524
				c0-56.458-45.768-102.227-102.227-102.227h0c-56.458,0-102.226,45.768-102.226,102.227v123.232
				C255.802,360.215,301.57,405.983,358.028,405.983z"/>
			<polygon style="fill:#C2C6F5;" points="447.585,340.199 485.598,393.031 423.102,365.327 			"/>
		</g>
		<g>
			<defs>
				<path id="SVGID_00000052824692723782439830000011895621314813159299_" d="M495.8,20.5H227.226v307.512h31.478
					c10.89,44.748,51.224,77.971,99.324,77.971h0c48.1,0,88.434-33.223,99.324-77.971H495.8V20.5z"/>
			</defs>
			<clipPath id="SVGID_00000008839966473533607080000016238044764872645528_">
				<use xlink:href="#SVGID_00000052824692723782439830000011895621314813159299_"  style="overflow:visible;"/>
			</clipPath>
			<g style="clip-path:url(#SVGID_00000008839966473533607080000016238044764872645528_);">
				<g>
					<path style="fill:#905DF3;" d="M446.044,182.563l-13.318,35.006c0,0-6.849-28.538-13.698-38.05
						c-6.849-9.512-36.528-15.981-40.333-23.211c-0.092-0.175-0.178-0.37-0.264-0.566l-38.547,34.05c0,0,4.688-23.439,6.882-34.924
						c-6.808,4.435-23.035,8.899-30.473,16.66c-8.751,9.132-15.981,40.333-15.981,40.333l-25.494-44.519l-15.22,7.99
						c0,0,5.707,20.547,18.264,49.846c12.557,29.299,31.582,49.465,31.582,49.465l4.059-13.896c0,0,12.487,15.163,35.677,15.163
						c23.19,0,44.356-11.541,44.356-11.541l11.035-30.06c0,0,21.689,41.855,27.777,42.997c6.088,1.142,13.318-21.308,17.884-35.006
						c4.566-13.698,12.727-50.893,12.727-50.893L446.044,182.563z"/>
					<path style="fill:#41007C;" d="M313.503,260.748l-4.059,13.896c0,0-6.469,17.503-9.893,29.299
						c-3.424,11.796-7.991,103.533-7.991,103.533h127.088c0,0-1.903-80.323-6.088-96.684c-4.185-16.362-19.025-46.421-19.025-46.421
						s-21.166,11.541-44.356,11.541C325.99,275.911,313.503,260.748,313.503,260.748z"/>
				</g>
				<path style="fill:#FF8775;" d="M341.69,133.429c7.4,7.648,19.872,9.812,29.416,5.103c2.831-1.397,5.376-3.311,7.781-5.355
					c4.794-4.076,9.131-8.755,12.36-14.156c2.299-3.845,4.014-8.014,5.461-12.255c3.2-9.376,5.131-19.453,3.386-29.206
					c-1.746-9.752-7.668-19.131-16.734-23.127c-10.343-4.559-22.469-4.127-31.848,2.182c-9.379,6.308-15.381,16.936-17.39,28.06
					c-1.013,5.611-1.088,11.348-0.971,17.049c0.119,5.794,0.438,11.624,1.81,17.254C336.333,124.608,337.66,129.264,341.69,133.429z
					"/>
				<path style="fill:#41007C;" d="M368.364,95.912c-0.138,1.905,0.918,3.534,2.358,3.638c1.44,0.104,2.719-1.357,2.856-3.262
					c0.137-1.905-0.919-3.534-2.359-3.638C369.78,92.546,368.501,94.007,368.364,95.912z"/>
				<path style="fill:#41007C;" d="M344.29,91.67c-0.135,1.874,0.903,3.476,2.32,3.578c1.416,0.102,2.674-1.334,2.809-3.208
					c0.135-1.874-0.903-3.476-2.319-3.578C345.683,88.359,344.425,89.796,344.29,91.67z"/>
				<g>
					<path style="fill:#0A2A6B;" d="M358.249,92.189c-0.004,0.854-0.319,1.668-0.59,2.459c-0.284,0.795-0.62,1.565-0.96,2.333
						c-0.692,1.529-1.46,3.015-2.259,4.483c-0.815,1.458-1.643,2.908-2.529,4.323c-0.87,1.425-1.785,2.819-2.737,4.194l-0.255-0.805
						c1.199,0.547,2.419,1.094,3.648,1.594c0.612,0.261,1.233,0.497,1.858,0.725c0.626,0.221,1.255,0.444,1.914,0.578
						c-1.355,0.011-2.688-0.319-3.993-0.644c-1.305-0.353-2.586-0.757-3.857-1.231l-0.583-0.217l0.328-0.588
						c0.809-1.451,1.63-2.899,2.48-4.327c0.832-1.439,1.702-2.854,2.554-4.279l2.603-4.244l1.286-2.129
						C357.551,93.688,358.027,92.994,358.249,92.189z"/>
				</g>
				<g>
					<path style="fill:#0A2A6B;" d="M380.712,90.953c-0.673-1.55-1.685-2.915-2.942-3.959c-1.232-1.066-2.7-1.831-4.232-2.189
						c-1.547-0.371-3.117-0.179-4.649-0.027c-1.557,0.175-3.08,0.599-4.723,1.223l-0.119-0.15c1.025-1.49,2.701-2.482,4.482-2.948
						c1.806-0.489,3.732-0.167,5.447,0.438c1.729,0.617,3.255,1.664,4.46,2.968c1.18,1.325,2.064,2.901,2.458,4.583L380.712,90.953z
						"/>
				</g>
				<path style="fill:#41007C;" d="M350.305,122.29c-0.136,0.965,1.443,1.985,3.528,2.28c2.085,0.295,3.886-0.248,4.022-1.212
					c0.136-0.965-1.443-1.986-3.528-2.28C352.242,120.783,350.441,121.325,350.305,122.29z"/>
				<g>
					<path style="fill:#0A2A6B;" d="M339.475,81.114c1.407,0.078,2.807,0.207,4.211,0.313l4.197,0.433
						c1.397,0.164,2.826,0.176,4.183,0.584c1.357,0.397,2.702,0.884,3.951,1.713l-0.043,0.186c-1.481,0.198-2.881,0.117-4.275-0.025
						c-1.394-0.13-2.721-0.627-4.083-0.954l-4.088-0.996c-1.36-0.359-2.726-0.687-4.084-1.066L339.475,81.114z"/>
				</g>
				<path style="fill:#41007C;" d="M394.574,109.133c-1.057-0.606-1.535-1.859-1.87-3.03c-2.529-8.824-1.243-18.672,3.466-26.552
					c-1.6-3.22-4.918-5.426-7.828-7.539c-3.289-2.389-6.794-4.589-10.694-5.736c-3.9-1.146-8.269-1.148-11.878,0.724
					c-0.746,0.387-1.467,0.862-1.985,1.524c-0.867,1.105-1.067,2.59-1.062,3.994c0.007,2.291,0.641,4.826,2.57,6.061
					c-4.255,0.365-9.045-1.673-11.921-4.829c-2.877-3.157-4.34-7.482-4.307-11.752c-1.977,2.347-4.037,5.112-4.527,8.141
					c-0.49,3.03,0.36,6.393,2.694,8.385c-3.557,0.539-7.865-0.368-10.891-2.313c-0.631,2.496-1.187,4.989-1.818,7.485
					c-4.105-2.794-7.054-8.017-7.909-12.908c-0.855-4.891,0.029-9.997,2.038-14.538c1.975-4.465,5.087-8.497,9.196-11.134
					c2.904-1.863,6.22-2.991,9.568-3.824c15.409-3.832,32.313-1.492,45.959,6.625c3.763,2.238,7.321,4.936,9.981,8.413
					s4.37,7.803,4.154,12.176c4.851,2.817,7.888,8.265,8.744,13.809c0.856,5.544-0.42,11.281-2.907,16.31
					c-2.742,5.545-7.391,10.61-13.459,11.813C398.251,110.764,395.364,110.603,394.574,109.133z"/>
				<g>
					<path style="fill:#FF8775;" d="M407.498,105.313c-0.848,3.908-3.441,7.403-6.935,9.348c-1.094,0.609-2.303,1.078-3.555,1.078
						c-2.823-0.001-5.195-2.484-5.859-5.228c-0.663-2.744,0.044-5.638,1.089-8.261c1.35-3.39,3.724-6.879,7.328-7.453
						C405.376,93.872,408.549,100.472,407.498,105.313z"/>
					<path style="fill:#FF8775;" d="M393.953,112.073c1.255-0.285,2.426-0.928,3.338-1.835c0.183-0.182,0.363-0.386,0.423-0.638
						c0.115-0.481-0.232-0.938-0.556-1.311c-0.656-0.754-1.312-1.508-1.968-2.261c-0.131-0.151-0.267-0.311-0.307-0.506
						c-0.044-0.215,0.035-0.434,0.113-0.64c0.993-2.615,2.148-5.427,4.563-6.836c0.652-0.381,1.397-0.643,2.151-0.603
						c1.12,0.059,2.12,0.784,2.775,1.694c0.655,0.91,1.016,1.994,1.347,3.065c0,0,0.18,5.764-4.041,8.923
						C397.569,114.286,393.953,112.073,393.953,112.073z"/>
					<g>
						<path style="fill:#0A2A6B;" d="M405.831,102.203c-0.457-1.062-0.888-2.156-1.626-2.985c-0.701-0.83-1.715-1.412-2.699-1.344
							c-0.988,0.077-1.961,0.667-2.726,1.404c-0.779,0.737-1.4,1.655-1.905,2.649c-0.528,0.983-0.948,2.043-1.373,3.111
							c-0.12,0.29-0.134,0.377-0.106,0.423c0.035,0.099,0.281,0.368,0.453,0.581l1.098,1.343l0.546,0.677
							c0.188,0.238,0.39,0.5,0.511,0.851c0.137,0.338,0.093,0.833-0.135,1.13c-0.216,0.302-0.448,0.474-0.681,0.666
							c-0.957,0.727-2.075,1.229-3.233,1.364c1.095-0.38,2.098-0.965,2.871-1.773c0.191-0.197,0.403-0.408,0.5-0.595
							c0.097-0.188,0.086-0.335-0.003-0.53c-0.181-0.377-0.649-0.793-1.032-1.22l-1.179-1.273c-0.191-0.234-0.384-0.36-0.626-0.771
							c-0.117-0.206-0.156-0.519-0.115-0.728c0.033-0.219,0.098-0.384,0.145-0.52c0.4-1.09,0.823-2.189,1.373-3.253
							c0.56-1.052,1.252-2.082,2.182-2.909c0.928-0.794,2.065-1.493,3.418-1.493c1.371,0.014,2.484,0.888,3.151,1.883
							C405.295,99.925,405.61,101.068,405.831,102.203z"/>
					</g>
				</g>
				<path style="fill:#41007C;" d="M390.854,114.822c-0.147,2.043,1.389,3.819,3.432,3.966c2.043,0.147,3.819-1.389,3.966-3.432
					c0.147-2.043-1.389-3.819-3.432-3.966C392.777,111.242,391.001,112.779,390.854,114.822z"/>
				<path style="fill:#FF8775;" d="M378.431,155.742c-3.447-7.876-1.638-31.777-1.638-31.777l-23.591,8.751
					c0,0-0.38,14.459-3.805,19.786c-0.514,0.8-1.428,1.582-2.63,2.365c-2.194,11.485-6.882,34.924-6.882,34.924L378.431,155.742z"/>
				<g>
					<path style="fill:#0A2A6B;" d="M404.619,235.119c-1.182-2.024-2.268-4.09-3.339-6.162c-1.089-2.062-2.072-4.182-3.141-6.243
						c-1.045-2.073-2.164-4.096-3.441-6.015c-1.294-1.905-2.815-3.659-4.624-5.146c1.023,0.574,1.953,1.307,2.835,2.092
						c0.861,0.808,1.651,1.694,2.383,2.623c1.454,1.869,2.623,3.931,3.697,6.013c1.058,2.093,2.016,4.218,2.951,6.361
						C402.874,230.782,403.794,232.93,404.619,235.119z"/>
				</g>
				<g>
					<path style="fill:#0A2A6B;" d="M433.007,216.809c-0.962,2.471-1.946,4.921-2.874,7.392c-0.917,2.474-1.833,4.945-2.678,7.442
						c-0.867,2.489-1.663,5.001-2.459,7.517c-0.787,2.519-1.516,5.056-2.277,7.596c0.374-2.626,0.928-5.221,1.571-7.795
						c0.633-2.577,1.412-5.116,2.264-7.628c0.873-2.505,1.819-4.987,2.904-7.409C430.531,221.499,431.689,219.111,433.007,216.809z"
						/>
				</g>
				<g>
					<path style="fill:#0A2A6B;" d="M299.288,210.943c2.124,3.289,3.938,6.749,5.628,10.266c1.664,3.529,3.205,7.119,4.416,10.843
						c-1.902-3.421-3.593-6.924-5.277-10.433C302.396,218.097,300.745,214.576,299.288,210.943z"/>
				</g>
				<g>
					<path style="fill:#0A2A6B;" d="M326.332,175.589c-3.664,3.692-6.96,7.743-9.735,12.114c-2.779,4.366-4.929,9.132-6.186,14.128
						c-1.251,4.987-1.476,10.24-0.57,15.292c0.909,5.036,2.936,9.924,6.255,13.839l0.101,0.12l0.002,0.156
						c0.072,6.23-0.306,12.46-1.044,18.638c-0.702,6.184-1.837,12.305-3.142,18.377c1.092-6.116,1.928-12.271,2.543-18.441
						c0.581-6.173,0.858-12.371,0.775-18.563l0.103,0.275c-3.441-4.028-5.63-9.048-6.512-14.239
						c-0.894-5.198-0.624-10.568,0.69-15.658c1.315-5.094,3.656-9.865,6.535-14.216C319.038,183.053,322.55,179.154,326.332,175.589
						z"/>
				</g>
				<polygon style="fill:#41007C;" points="346.766,154.868 339.884,189.792 378.431,155.742 381.513,159.359 332.919,202.684 
					341.897,157.213 				"/>
				<path style="fill:#41007C;" d="M352.631,139.732c0,0,3.45,1.305,9.977,0.28c6.527-1.026,14.079-5.128,14.079-5.128
					s-6.434,6.061-13.613,7.739c-7.18,1.678-11.002,0.839-11.002,0.839L352.631,139.732z"/>
				<g>
					<path style="fill:#FFFFFF;" d="M329.174,313.906c2.097,1.683,4.225,3.33,6.297,5.042c2.07,1.715,4.167,3.397,6.215,5.138
						l0.137,0.116l0.007,0.183l0.824,20.767l0.715,20.771c0.253,6.923,0.427,13.849,0.626,20.774
						c0.218,6.924,0.318,13.853,0.482,20.78c-0.346-6.92-0.757-13.837-1.049-20.759c-0.311-6.921-0.647-13.841-0.904-20.764
						l-0.815-20.767l-0.706-20.771l0.144,0.299c-2.034-1.757-4.017-3.572-6.028-5.356
						C333.111,317.572,331.157,315.721,329.174,313.906z"/>
				</g>
				<g style="opacity:0.25;">
					<g>
						<path style="fill:#FFFFFF;" d="M405.604,72.571c-3.327-0.38-6.348-2.155-8.868-4.314c-2.539-2.191-4.589-4.857-6.642-7.447
							c-2.064-2.583-4.103-5.19-6.638-7.25c-2.524-2.062-5.406-3.695-8.488-4.757c-3.063-1.119-6.326-1.675-9.586-1.684
							c-3.245,0.05-6.576,0.516-9.424,2.046c-2.852,1.528-4.861,4.355-5.806,7.47c-0.994,3.121-1.058,6.522-0.394,9.763
							c-0.875-3.198-0.921-6.648-0.054-9.896c0.875-3.226,2.899-6.267,5.894-7.977c2.983-1.73,6.442-2.177,9.779-2.275
							c3.365-0.019,6.739,0.522,9.912,1.655c3.175,1.126,6.136,2.837,8.724,4.989c2.595,2.167,4.687,4.816,6.663,7.471
							c1.987,2.65,3.943,5.323,6.373,7.546C399.429,70.149,402.319,71.976,405.604,72.571z"/>
					</g>
					<g>
						<path style="fill:#FFFFFF;" d="M360.294,39.111c-4.707,1.089-9.238,2.831-13.396,5.214c-4.136,2.393-8.039,5.309-10.979,9.053
							c-2.968,3.654-4.969,8.309-4.526,13.046c0.192,2.35,0.917,4.674,2.169,6.692c0.629,1.004,1.371,1.948,2.263,2.746
							c0.902,0.783,1.917,1.438,3.021,1.935c-1.141-0.4-2.22-0.989-3.184-1.741c-0.959-0.76-1.78-1.684-2.492-2.684
							c-1.378-2.037-2.216-4.424-2.508-6.874c-0.321-2.457,0.068-4.987,0.898-7.302c0.827-2.329,2.089-4.486,3.612-6.411
							c3.105-3.822,7.091-6.804,11.371-9.1C350.842,41.399,355.508,39.814,360.294,39.111z"/>
					</g>
				</g>
				<g>
					<path style="fill:#FF8775;" d="M274.818,167.346c0,0-1.702-3.568-1.98-8.427c-0.278-4.859-3.609-9.162-5.969-11.939
						c-2.36-2.777-4.303-7.358-6.525-9.301c-2.221-1.943-4.998-0.555-3.748,3.471c1.249,4.026,3.748,6.802,3.887,8.746
						c0.139,1.944-1.249,2.638-1.249,2.638s-9.579-5.692-15.132-13.188c-3.514-4.743-10.273-8.19-13.188-5.83
						c-1.382,1.118-4.442,8.746,5.692,20.823s23.045,14.854,23.739,15.687c0.694,0.833,1.685,4.036,1.685,4.036L274.818,167.346z"/>
					<g>
						<g>
							<path style="fill:#0A2A6B;" d="M229.93,143.21c1.195-0.292,2.487-0.046,3.616,0.465c1.138,0.523,2.116,1.343,2.971,2.233
								c0.867,0.889,1.581,1.891,2.33,2.839c0.748,0.948,1.523,1.873,2.332,2.768c1.584,1.821,3.31,3.514,5.119,5.117
								c1.802,1.612,3.721,3.095,5.693,4.526c-2.15-1.15-4.183-2.522-6.09-4.055c-1.915-1.525-3.666-3.25-5.32-5.056
								c-0.803-0.926-1.572-1.881-2.311-2.857c-0.73-0.982-1.444-1.952-2.207-2.87c-0.772-0.908-1.648-1.729-2.692-2.297
								C232.346,143.424,231.147,143.1,229.93,143.21z"/>
						</g>
						<g>
							<path style="fill:#0A2A6B;" d="M229.517,140.597c1.163-0.524,2.513-0.568,3.777-0.333c1.268,0.259,2.471,0.803,3.551,1.517
								c2.167,1.441,3.783,3.464,5.583,5.188c1.755,1.789,3.674,3.411,5.672,4.929c1.999,1.52,4.111,2.893,6.292,4.177
								c-2.333-0.986-4.553-2.243-6.653-3.676c-2.101-1.435-4.049-3.089-5.877-4.862c-1.791-1.815-3.38-3.779-5.37-5.253
								c-0.984-0.738-2.095-1.315-3.287-1.64C232.021,140.296,230.737,140.247,229.517,140.597z"/>
						</g>
						<g>
							<path style="fill:#0A2A6B;" d="M229.771,136.125c1.223-0.558,2.645-0.611,3.978-0.365c1.336,0.269,2.606,0.844,3.736,1.604
								c2.274,1.531,3.973,3.663,5.859,5.497c1.842,1.903,3.824,3.664,5.867,5.354c2.044,1.69,4.184,3.266,6.376,4.786
								c-2.366-1.236-4.615-2.697-6.757-4.301c-2.143-1.605-4.146-3.394-6.054-5.275c-1.874-1.922-3.548-3.997-5.644-5.559
								c-1.036-0.785-2.211-1.39-3.471-1.726C232.409,135.781,231.053,135.74,229.771,136.125z"/>
						</g>
					</g>
				</g>
				<g>
					<path style="fill:#FF8775;" d="M446.054,182.557c0,0,1.702-3.568,1.98-8.427c0.278-4.859,3.609-9.162,5.969-11.939
						c2.36-2.777,4.304-7.358,6.525-9.301c2.221-1.943,4.998-0.555,3.748,3.471c-1.249,4.026-3.748,6.802-3.887,8.746
						c-0.139,1.943,1.249,2.638,1.249,2.638s9.579-5.692,15.131-13.188c3.514-4.743,10.273-8.191,13.188-5.831
						c1.382,1.118,4.442,8.746-5.692,20.823c-10.134,12.077-23.044,14.854-23.739,15.687c-0.694,0.833-1.685,4.036-1.685,4.036
						L446.054,182.557z"/>
					<g>
						<g>
							<path style="fill:#0A2A6B;" d="M490.943,158.421c-1.217-0.109-2.417,0.214-3.439,0.813c-1.045,0.568-1.92,1.389-2.692,2.297
								c-0.763,0.918-1.478,1.889-2.207,2.87c-0.739,0.976-1.508,1.931-2.311,2.857c-1.654,1.807-3.405,3.531-5.32,5.056
								c-1.908,1.532-3.941,2.905-6.091,4.055c1.971-1.432,3.89-2.914,5.693-4.526c1.809-1.603,3.536-3.296,5.119-5.117
								c0.808-0.895,1.584-1.82,2.332-2.768c0.749-0.947,1.464-1.95,2.33-2.839c0.855-0.89,1.833-1.71,2.971-2.234
								C488.455,158.375,489.748,158.129,490.943,158.421z"/>
						</g>
						<g>
							<path style="fill:#0A2A6B;" d="M491.355,155.808c-1.22-0.35-2.504-0.301-3.688,0.047c-1.192,0.324-2.304,0.901-3.287,1.64
								c-1.99,1.474-3.579,3.439-5.37,5.253c-1.828,1.773-3.776,3.427-5.877,4.862c-2.1,1.433-4.32,2.69-6.653,3.676
								c2.181-1.283,4.293-2.657,6.292-4.177c1.998-1.518,3.917-3.14,5.672-4.929c1.8-1.724,3.415-3.747,5.583-5.188
								c1.079-0.714,2.282-1.259,3.55-1.517C488.842,155.239,490.192,155.284,491.355,155.808z"/>
						</g>
						<g>
							<path style="fill:#0A2A6B;" d="M491.101,151.336c-1.282-0.385-2.638-0.343-3.889,0.016c-1.26,0.335-2.435,0.941-3.471,1.726
								c-2.096,1.562-3.77,3.637-5.644,5.559c-1.908,1.881-3.911,3.669-6.054,5.275c-2.143,1.604-4.391,3.065-6.757,4.301
								c2.192-1.52,4.332-3.096,6.376-4.786c2.043-1.689,4.025-3.451,5.867-5.353c1.886-1.835,3.585-3.967,5.859-5.497
								c1.13-0.761,2.4-1.335,3.736-1.604C488.456,150.725,489.878,150.778,491.101,151.336z"/>
						</g>
					</g>
				</g>
			</g>
		</g>
		<g>
			<g>
				<g>
					<path style="fill:#41007C;" d="M446.342,317.315l1.727-3.11c1.086-1.956,2.236-3.453,3.454-4.492
						c1.216-1.039,2.467-1.816,3.751-2.331c1.284-0.515,2.523-0.927,3.719-1.236c1.599-0.391,3.075-0.838,4.429-1.341
						c1.354-0.502,2.465-1.536,3.334-3.101c0.478-0.86,0.664-1.704,0.56-2.529c-0.105-0.826-0.368-1.573-0.789-2.242
						c-0.423-0.669-0.926-1.167-1.513-1.493c-1.135-0.63-2.23-0.893-3.286-0.788c-1.056,0.105-2.057,0.432-3.002,0.982
						c-0.946,0.55-1.844,1.177-2.695,1.881l-1.598-0.887l-3.39-6.028c0.626-0.574,1.536-1.245,2.731-2.015
						c1.194-0.769,2.634-1.403,4.318-1.901c1.683-0.497,3.543-0.668,5.58-0.51c2.035,0.159,4.188,0.867,6.458,2.127
						c2.23,1.238,4.022,2.732,5.379,4.484c1.356,1.751,2.123,3.712,2.299,5.883c0.177,2.171-0.452,4.547-1.885,7.129
						c-1.195,2.152-2.455,3.73-3.78,4.734c-1.326,1.004-2.674,1.727-4.045,2.168c-1.372,0.441-2.737,0.873-4.097,1.295
						c-1.035,0.296-2.078,0.677-3.129,1.142c-1.052,0.465-2.047,1.128-2.985,1.989c-0.939,0.861-1.821,2.035-2.646,3.521
						l-0.684,1.232L446.342,317.315z M443.575,331.977c-1.408-0.782-2.351-1.804-2.827-3.066c-0.477-1.263-0.367-2.519,0.328-3.771
						c0.673-1.212,1.697-1.975,3.073-2.286c1.375-0.311,2.747-0.087,4.117,0.674c1.369,0.76,2.266,1.796,2.69,3.106
						c0.424,1.31,0.299,2.572-0.374,3.784c-0.695,1.252-1.685,2.02-2.969,2.305C446.329,333.008,444.983,332.759,443.575,331.977z"
						/>
				</g>
				<g>
					<path style="fill:#905DF3;" d="M444.744,316.428l1.727-3.11c1.086-1.956,2.236-3.453,3.454-4.492
						c1.216-1.039,2.467-1.816,3.751-2.331c1.284-0.515,2.523-0.927,3.719-1.236c1.599-0.391,3.075-0.838,4.429-1.341
						c1.354-0.502,2.465-1.535,3.334-3.1c0.478-0.86,0.664-1.704,0.56-2.529c-0.105-0.826-0.368-1.573-0.789-2.242
						c-0.423-0.669-0.926-1.167-1.513-1.493c-1.135-0.63-2.229-0.893-3.286-0.788c-1.056,0.105-2.057,0.432-3.002,0.982
						c-0.946,0.55-1.844,1.177-2.695,1.881l-4.988-6.915c0.626-0.574,1.536-1.245,2.731-2.015c1.195-0.769,2.634-1.403,4.319-1.901
						c1.683-0.497,3.543-0.668,5.58-0.51c2.035,0.158,4.188,0.867,6.457,2.127c2.23,1.238,4.022,2.732,5.379,4.484
						c1.356,1.751,2.123,3.712,2.299,5.883c0.177,2.171-0.452,4.547-1.885,7.129c-1.195,2.152-2.455,3.73-3.78,4.733
						c-1.325,1.004-2.674,1.727-4.044,2.168c-1.372,0.442-2.738,0.873-4.097,1.295c-1.035,0.296-2.078,0.677-3.129,1.142
						c-1.052,0.465-2.047,1.128-2.985,1.989c-0.939,0.861-1.821,2.034-2.646,3.521l-0.684,1.232L444.744,316.428z M441.977,331.09
						c-1.408-0.782-2.351-1.804-2.827-3.066c-0.477-1.263-0.367-2.519,0.328-3.771c0.673-1.212,1.697-1.975,3.073-2.286
						c1.375-0.311,2.747-0.087,4.117,0.674c1.369,0.76,2.266,1.796,2.69,3.106c0.424,1.31,0.299,2.572-0.374,3.784
						c-0.695,1.252-1.685,2.02-2.969,2.305C444.731,332.12,443.385,331.872,441.977,331.09z"/>
				</g>
			</g>
			<g>
				<g>
					<path style="fill:#41007C;" d="M287.611,121.336l-0.978-3.84c-0.615-2.415-0.827-4.508-0.635-6.281
						c0.191-1.771,0.611-3.357,1.258-4.756c0.647-1.399,1.336-2.68,2.068-3.844c0.997-1.539,1.852-3.03,2.564-4.472
						c0.713-1.441,0.824-3.128,0.331-5.061c-0.27-1.062-0.764-1.888-1.48-2.478c-0.716-0.589-1.501-0.993-2.354-1.214
						c-0.854-0.219-1.642-0.238-2.367-0.053c-1.402,0.357-2.489,0.981-3.265,1.873c-0.776,0.892-1.337,1.922-1.682,3.09
						c-0.346,1.169-0.594,2.363-0.746,3.585l-1.973,0.503l-7.355-2.293c0.068-0.943,0.293-2.183,0.673-3.72
						c0.38-1.536,1.062-3.15,2.046-4.842c0.984-1.69,2.361-3.249,4.132-4.678c1.77-1.427,4.057-2.499,6.858-3.213
						c2.753-0.701,5.348-0.86,7.786-0.478c2.437,0.382,4.558,1.385,6.36,3.01c1.802,1.624,3.109,4.03,3.921,7.218
						c0.677,2.657,0.862,4.899,0.555,6.725c-0.306,1.827-0.847,3.444-1.62,4.849c-0.774,1.406-1.551,2.8-2.33,4.181
						c-0.613,1.031-1.166,2.136-1.663,3.317c-0.497,1.181-0.796,2.479-0.899,3.894c-0.103,1.415,0.08,3.04,0.547,4.876l0.387,1.521
						L287.611,121.336z M296.575,135.332c-1.739,0.443-3.284,0.335-4.634-0.324c-1.352-0.659-2.223-1.761-2.617-3.307
						c-0.381-1.497-0.134-2.898,0.743-4.201c0.876-1.303,2.16-2.17,3.851-2.601c1.69-0.43,3.209-0.277,4.553,0.461
						c1.345,0.738,2.208,1.856,2.59,3.353c0.394,1.546,0.178,2.925-0.644,4.137C299.595,134.062,298.314,134.89,296.575,135.332z"/>
				</g>
				<g>
					<path style="fill:#905DF3;" d="M285.637,121.839l-0.978-3.84c-0.615-2.415-0.827-4.508-0.635-6.281
						c0.191-1.771,0.611-3.357,1.258-4.756c0.647-1.399,1.336-2.68,2.068-3.844c0.997-1.539,1.852-3.03,2.564-4.472
						c0.713-1.441,0.824-3.128,0.331-5.061c-0.27-1.062-0.764-1.888-1.48-2.478c-0.716-0.589-1.501-0.993-2.353-1.214
						c-0.854-0.219-1.642-0.238-2.367-0.053c-1.402,0.357-2.489,0.981-3.265,1.873c-0.776,0.892-1.337,1.922-1.682,3.09
						c-0.346,1.168-0.594,2.363-0.746,3.585l-9.328-1.791c0.068-0.943,0.293-2.183,0.673-3.72c0.38-1.536,1.061-3.15,2.046-4.842
						c0.984-1.69,2.361-3.249,4.132-4.678c1.77-1.427,4.057-2.499,6.859-3.213c2.753-0.701,5.348-0.86,7.786-0.478
						c2.437,0.382,4.558,1.385,6.36,3.01c1.802,1.624,3.109,4.03,3.921,7.218c0.677,2.657,0.862,4.899,0.555,6.725
						c-0.306,1.827-0.847,3.444-1.62,4.849c-0.774,1.406-1.551,2.8-2.33,4.181c-0.613,1.031-1.166,2.137-1.663,3.317
						c-0.497,1.181-0.796,2.479-0.899,3.894c-0.103,1.415,0.08,3.04,0.547,4.876l0.387,1.521L285.637,121.839z M294.602,135.835
						c-1.739,0.443-3.284,0.335-4.634-0.324c-1.352-0.659-2.223-1.761-2.617-3.307c-0.381-1.497-0.134-2.898,0.743-4.201
						c0.876-1.303,2.16-2.17,3.851-2.601c1.69-0.43,3.209-0.277,4.553,0.461c1.345,0.738,2.208,1.856,2.59,3.353
						c0.394,1.547,0.178,2.925-0.644,4.137C297.621,134.565,296.341,135.392,294.602,135.835z"/>
				</g>
			</g>
			<g>
				<path style="fill:#41007C;" d="M424.924,150.658l1.409-3.58c0.886-2.252,1.907-4.021,3.065-5.309
					c1.156-1.287,2.387-2.298,3.691-3.033c1.304-0.735,2.573-1.353,3.812-1.855c1.659-0.646,3.178-1.336,4.559-2.068
					c1.38-0.731,2.425-1.997,3.134-3.799c0.39-0.99,0.47-1.922,0.241-2.792c-0.23-0.871-0.618-1.634-1.165-2.292
					c-0.548-0.657-1.159-1.119-1.835-1.385c-1.307-0.514-2.518-0.64-3.635-0.378c-1.117,0.262-2.144,0.755-3.079,1.48
					c-0.936,0.724-1.809,1.525-2.622,2.401l-6.333-6.706c0.589-0.704,1.47-1.554,2.642-2.549c1.172-0.994,2.624-1.879,4.36-2.653
					c1.734-0.773,3.705-1.22,5.911-1.34c2.205-0.12,4.615,0.334,7.227,1.362c2.567,1.01,4.702,2.358,6.406,4.043
					c1.703,1.685,2.804,3.679,3.302,5.981c0.498,2.303,0.162,4.94-1.008,7.913c-0.975,2.477-2.102,4.349-3.38,5.614
					c-1.278,1.265-2.622,2.233-4.029,2.901c-1.408,0.669-2.811,1.325-4.209,1.971c-1.068,0.465-2.132,1.021-3.193,1.669
					c-1.062,0.648-2.034,1.501-2.918,2.557c-0.884,1.056-1.663,2.441-2.336,4.152l-0.558,1.418L424.924,150.658z M424.042,166.773
					c-1.621-0.638-2.778-1.6-3.467-2.886c-0.691-1.286-0.752-2.649-0.184-4.091c0.549-1.396,1.539-2.359,2.97-2.888
					c1.43-0.529,2.933-0.484,4.51,0.137c1.576,0.62,2.685,1.603,3.326,2.948c0.641,1.345,0.686,2.716,0.137,4.111
					c-0.568,1.442-1.52,2.406-2.856,2.894C427.142,167.487,425.663,167.412,424.042,166.773z"/>
			</g>
			<g>
				<path style="fill:#41007C;" d="M278.297,306.036l-0.538-2.855c-0.338-1.796-0.397-3.337-0.174-4.626
					c0.222-1.287,0.603-2.428,1.141-3.422c0.538-0.994,1.101-1.899,1.692-2.717c0.801-1.08,1.496-2.131,2.084-3.154
					c0.589-1.022,0.748-2.251,0.477-3.688c-0.149-0.79-0.472-1.417-0.968-1.882c-0.497-0.464-1.052-0.796-1.666-0.997
					c-0.615-0.2-1.191-0.25-1.73-0.149c-1.042,0.196-1.867,0.603-2.476,1.219c-0.609,0.617-1.068,1.345-1.374,2.183
					c-0.307,0.839-0.544,1.702-0.712,2.589l-6.743-1.743c0.094-0.687,0.315-1.584,0.665-2.691c0.35-1.106,0.923-2.256,1.722-3.448
					c0.798-1.191,1.878-2.269,3.241-3.232c1.362-0.962,3.085-1.641,5.168-2.033c2.047-0.385,3.953-0.382,5.72,0.011
					c1.766,0.393,3.271,1.225,4.515,2.497c1.244,1.272,2.089,3.093,2.535,5.464c0.372,1.976,0.404,3.625,0.094,4.947
					c-0.309,1.323-0.779,2.481-1.41,3.473c-0.632,0.993-1.265,1.977-1.899,2.952c-0.496,0.726-0.953,1.509-1.371,2.35
					c-0.419,0.841-0.698,1.777-0.838,2.808c-0.141,1.03-0.082,2.229,0.174,3.593l0.213,1.131L278.297,306.036z M284.208,316.694
					c-1.293,0.243-2.419,0.093-3.376-0.452c-0.959-0.545-1.545-1.392-1.762-2.541c-0.21-1.113,0.036-2.127,0.739-3.04
					c0.701-0.913,1.681-1.488,2.939-1.725c1.257-0.237,2.361-0.054,3.311,0.548c0.95,0.602,1.53,1.46,1.74,2.574
					c0.217,1.15-0.005,2.148-0.663,2.998C286.477,315.904,285.501,316.45,284.208,316.694z"/>
			</g>
		</g>
	</g>
	<g>
		<g>
			<path style="fill:#C2C6F5;" d="M139.824,445.399L139.824,445.399c-56.458,0-102.227-45.768-102.227-102.227V219.94
				c0-56.458,45.768-102.227,102.226-102.227h0c56.458,0,102.227,45.768,102.227,102.227v123.232
				C242.051,399.63,196.282,445.399,139.824,445.399z"/>
			<polygon style="fill:#C2C6F5;" points="53.268,380.615 15.255,433.447 77.751,405.742 			"/>
		</g>
		<g>
			<defs>
				<path id="SVGID_00000057871058385745850010000006018635866340280764_" d="M276.386,68.197H9.137v270.768h28.46v4.207
					c0,56.458,45.768,102.227,102.226,102.227h0c56.458,0,102.226-45.768,102.226-102.227v-4.207h34.335V68.197z"/>
			</defs>
			<clipPath id="SVGID_00000038385444166682484350000002396941045774233522_">
				<use xlink:href="#SVGID_00000057871058385745850010000006018635866340280764_"  style="overflow:visible;"/>
			</clipPath>
			<g style="clip-path:url(#SVGID_00000038385444166682484350000002396941045774233522_);">
				<path style="fill:#41007C;" d="M131.799,88.331c20.327-1.384,36.273,8.871,41.633,25.788c5.36,16.917,5.085,23.077,11.13,31.77
					c6.046,8.693,13.325,11.196,10.692,18.57c-2.633,7.374-9.103,7.58-9.103,7.58s5.836,9.611-1.273,19.406
					c-7.11,9.795-20.568,1.793-20.568,1.793s-3.105,7.617-18.215,7.642c-15.11,0.025-27.789-6.179-27.789-6.179
					s-5.554,6.1-14.046,3.181c-8.492-2.919-8.517-10.893-8.517-10.893s-9.11,7.353-17.604-2.857
					c-8.495-10.21-0.366-18.215-0.366-18.215s-11.375-3.056-7.508-16.621c3.866-13.565,14.732-11.404,22.318-28.505
					C100.169,103.69,106.671,90.041,131.799,88.331z"/>
				<path style="fill:#FF8775;" d="M151.81,95.925c8.085,4.638,13.217,13.52,14.958,22.753c1.742,9.233,0.426,14.141-2,23.215
					c2.581,3.134,7.403,37.775-19.027,44.634c-9.817,2.548-20.681-2.003-27.911-9.198c-3.679-3.661-6.467-8.156-8.674-12.875
					c-8.654-18.505-8.126-41.444,2.537-58.845c2.502-4.083,5.631-7.945,9.822-10.204c2.854-1.539,6.065-2.262,9.258-2.782
					C134.856,91.958,149.159,94.404,151.81,95.925z"/>
				<path style="fill:#41007C;" d="M99.671,155.544c4.419-2.194,7.505-6.51,8.821-11.182c1.317-4.673,2.911-9.671,1.768-14.387
					c4.437-0.21,7.189-1.06,10.16-4.29c2.971-3.229,3.24-8.192,2.987-12.529c3.762,3.243,8.079,5.518,13.088,5.286
					c5.009-0.233,9.988-3.135,11.901-7.669c0.983,2.366,1.721,4.555,3.701,6.219c1.864,1.567,4.062,2.708,6.308,3.683
					c3.282,1.425,6.876,2.541,10.423,1.997c0.451-9.16-3.656-17.926-11.127-23.466c-2.465-1.828-5.212-3.257-7.986-4.596
					c-4.167-2.01-8.487-3.851-13.076-4.564c-8.455-1.315-17.221,1.38-24.27,6.132c-9.197,6.2-15.82,15.946-18.104,26.639
					C91.981,133.511,93.781,146.263,99.671,155.544z"/>
				<g>
					<path style="fill:#FF8775;" d="M94.485,145.132c-0.308,3.987,1.174,8.079,3.964,10.944c0.873,0.897,1.897,1.693,3.096,2.052
						c2.704,0.809,5.689-0.89,7.111-3.329c1.422-2.438,1.574-5.414,1.325-8.226c-0.321-3.635-1.595-7.658-4.883-9.241
						C99.799,134.78,94.867,140.193,94.485,145.132z"/>
					<path style="fill:#FF8775;" d="M105.524,155.493c-1.12-0.632-2.058-1.585-2.672-2.715c-0.123-0.227-0.237-0.474-0.223-0.732
						c0.028-0.493,0.491-0.832,0.909-1.096c0.845-0.534,1.689-1.068,2.534-1.602c0.169-0.107,0.344-0.221,0.439-0.397
						c0.104-0.193,0.091-0.426,0.075-0.645c-0.202-2.789-0.502-5.814-2.412-7.857c-0.516-0.552-1.153-1.017-1.887-1.195
						c-1.09-0.264-2.256,0.144-3.144,0.828c-0.888,0.684-1.545,1.619-2.169,2.55c0,0-1.824,5.47,1.313,9.707
						C101.425,156.575,105.524,155.493,105.524,155.493z"/>
					<g>
						<path style="fill:#0A2A6B;" d="M96.974,142.632c0.538-1.024,1.167-2.029,2.092-2.831c0.924-0.762,2.241-1.281,3.558-0.901
							c1.296,0.388,2.185,1.383,2.846,2.41c0.654,1.059,1.021,2.243,1.256,3.412c0.222,1.177,0.312,2.352,0.383,3.51
							c0.006,0.143,0.021,0.32-0.01,0.539c-0.022,0.212-0.148,0.501-0.319,0.665c-0.35,0.325-0.57,0.39-0.821,0.559l-1.494,0.882
							c-0.489,0.3-1.057,0.564-1.338,0.873c-0.14,0.161-0.193,0.299-0.154,0.507c0.039,0.207,0.182,0.47,0.309,0.713
							c0.509,0.996,1.302,1.844,2.243,2.522c-1.071-0.462-1.998-1.263-2.706-2.234c-0.168-0.251-0.342-0.483-0.462-0.834
							c-0.134-0.35-0.034-0.837,0.195-1.121c0.217-0.301,0.486-0.494,0.734-0.668l0.717-0.492l1.437-0.972
							c0.225-0.155,0.538-0.342,0.6-0.427c0.04-0.035,0.051-0.123,0.02-0.435c-0.101-1.145-0.199-2.281-0.424-3.374
							c-0.199-1.097-0.531-2.155-1.066-3.084c-0.522-0.926-1.285-1.769-2.209-2.126c-0.924-0.348-2.062-0.08-2.971,0.514
							C98.442,140.82,97.717,141.745,96.974,142.632z"/>
					</g>
				</g>
				<g>
					<path style="fill:#41007C;" d="M211.913,331.873c0,0,16.531-16.531,23.516-26.775c6.985-10.245,15.367-24.214,15.367-24.214
						s-37.253-42.375-52.387-58.208c-15.134-15.832-22.584-18.161-29.802-21.187c-4.447-1.865-10.836-3.2-15.524-4.821
						c-0.043,2.65-0.379,5.283-1.279,7.766c-1.354,3.738-4.131,7.116-7.887,8.419c-4.528,1.571-9.552-0.075-13.739-2.408
						c-5.074-2.827-9.556-6.697-13.13-11.276c-6.405,4.797-33.972,10.684-43.437,24.206c-9.779,13.97-43.306,77.3-43.306,77.3
						s24.913,15.6,44.005,23.516s27.795,11.03,27.795,11.03l6.519-15.367c0,0-13.651-11.156-22.499-15.812
						c-8.848-4.657-19.558-9.08-19.558-9.08l25.437-38.756l24.447,56.345c0,0-12.573,22.817-19.558,43.306
						c-6.985,20.489-10.943,94.243-10.943,94.243h136.575c0,0-22.256-131.729-27.145-150.355
						c-4.889-18.626-5.122-35.157-5.122-35.157l2.328-2.794l28.172,23.283l-15.833,27.008L211.913,331.873z"/>
				</g>
				<g>
					<path style="fill:#0A2A6B;" d="M169.604,208.953c2.194,1.772,4.508,3.419,6.703,5.209c2.197,1.789,4.346,3.642,6.423,5.577
						c4.137,3.878,8.008,8.11,11.056,12.967c1.48,2.444,2.7,5.099,3.3,7.943c0.292,1.424,0.331,2.907,0.273,4.318
						c0,1.427-0.153,2.852-0.324,4.267c-0.369,2.829-1.05,5.628-2.132,8.269c-0.528,1.325-1.208,2.586-1.955,3.795
						c-0.761,1.199-1.627,2.346-2.688,3.288c1.936-2.07,3.255-4.622,4.207-7.253c0.976-2.632,1.564-5.397,1.838-8.186
						c0.097-0.694,0.099-1.399,0.154-2.096c0.062-0.698,0.071-1.399,0.074-2.101c0.042-1.415-0.009-2.775-0.298-4.127
						c-0.596-2.694-1.797-5.25-3.263-7.621c-2.909-4.787-6.748-8.975-10.747-12.936
						C178.236,216.273,173.839,212.705,169.604,208.953z"/>
				</g>
				<path style="fill:#FFFFFF;" d="M108.115,203.246c0,0,11.183,22.732,22.124,22.124c10.94-0.608,11.548-12.034,11.548-12.034
					s9.725,11.913,17.14,7.658s2.188-22.367,2.188-22.367l-16.893-4.016l-27.173,4.558L108.115,203.246z"/>
				<path style="fill:#FF8775;" d="M130.179,210.445c4.187,2.333,9.21,3.979,13.739,2.408c3.756-1.303,6.532-4.681,7.887-8.419
					c0.899-2.483,1.236-5.116,1.279-7.766c-2.92-1.01-5.181-2.131-5.896-3.561c-1.863-3.725-1.863-14.435-1.863-14.435
					l-23.749-4.191c0,0,1.164,19.325-3.958,24.214c-0.164,0.157-0.355,0.315-0.568,0.474
					C120.622,203.748,125.104,207.618,130.179,210.445z"/>
				<path style="fill:none;stroke:#FFFFFF;stroke-width:0.9544;stroke-miterlimit:10;" d="M142.099,215.069
					c22.694,59.402,29.601,172.072,35.484,235.389"/>
				<g>
					<path style="fill:#0A2A6B;" d="M88.484,261.674c1.006-1.936,2.102-3.818,3.29-5.652c1.178-1.84,2.498-3.598,3.956-5.244
						c1.474-1.63,3.096-3.147,4.916-4.395c0.91-0.622,1.854-1.192,2.836-1.687c0.996-0.466,2.01-0.891,3.067-1.172
						c-1.964,0.948-3.79,2.105-5.464,3.447c-1.667,1.35-3.219,2.836-4.644,4.443c-1.442,1.593-2.758,3.303-4.068,5.026
						C91.071,258.17,89.821,259.949,88.484,261.674z"/>
				</g>
				<path style="fill:#41007C;" d="M121.384,180.024c0,0,9.098,5.23,15.084,6.253c6.561,1.121,10.262-0.309,10.262-0.309
					l0.398,3.847c0,0-5.735,1.179-13.948-2.152C124.967,184.331,121.384,180.024,121.384,180.024z"/>
				<path style="fill:#41007C;" d="M135.819,138.341c-0.076,1.856-1.275,3.314-2.678,3.257c-1.403-0.057-2.479-1.609-2.403-3.465
					c0.076-1.856,1.275-3.314,2.677-3.257C134.819,134.934,135.895,136.485,135.819,138.341z"/>
				<path style="fill:#41007C;" d="M159.425,139.204c-0.073,1.799-1.236,3.213-2.596,3.157c-1.36-0.056-2.403-1.559-2.329-3.359
					c0.074-1.799,1.236-3.213,2.596-3.157C158.456,135.901,159.499,137.404,159.425,139.204z"/>
				<g>
					<path style="fill:#0A2A6B;" d="M145.693,134.402c0.085,2.559,0.148,5.145,0.677,7.573c0.137,0.598,0.303,1.191,0.557,1.692
						c0.234,0.463,0.676,0.92,1.085,1.34c0.866,0.843,1.934,1.583,2.85,2.633c1.928,2.121,2.299,5.405,1.022,7.907
						c-1.285,2.515-4.156,3.968-6.73,3.557c2.561-0.267,4.77-1.912,5.656-4.058c0.895-2.145,0.489-4.763-1.012-6.49
						c-0.761-0.894-1.776-1.682-2.687-2.683c-0.459-0.513-0.872-1.037-1.187-1.737c-0.279-0.667-0.409-1.329-0.512-1.986
						C145.089,139.52,145.305,136.943,145.693,134.402z"/>
				</g>
				<g>
					<path style="fill:#0A2A6B;" d="M122.757,132.026c0.694-1.502,1.895-2.753,3.275-3.712c1.402-0.937,3.011-1.58,4.701-1.886
						c1.679-0.294,3.471-0.401,5.13,0.152c1.636,0.536,3.198,1.48,4.177,2.894l-0.109,0.134c-1.544-0.634-2.996-1.081-4.496-1.354
						c-1.484-0.247-2.986-0.574-4.524-0.455c-1.526,0.11-3.051,0.532-4.435,1.257c-1.397,0.701-2.653,1.728-3.568,3.054
						L122.757,132.026z"/>
				</g>
				<g>
					<path style="fill:#0A2A6B;" d="M166.025,131.967c-0.914-1.327-2.171-2.354-3.567-3.054c-1.384-0.725-2.909-1.146-4.435-1.257
						c-1.539-0.119-3.04,0.208-4.524,0.455c-1.5,0.273-2.952,0.719-4.497,1.353l-0.109-0.134c0.979-1.414,2.541-2.358,4.177-2.894
						c1.659-0.552,3.451-0.446,5.13-0.152c1.69,0.306,3.299,0.949,4.701,1.886c1.38,0.958,2.581,2.21,3.275,3.712L166.025,131.967z"
						/>
				</g>
				<path style="fill:#41007C;" d="M150.336,168.675c0.027,0.974-1.658,1.81-3.763,1.868c-2.105,0.058-3.833-0.684-3.86-1.658
					c-0.027-0.974,1.658-1.81,3.763-1.868C148.581,166.959,150.309,167.701,150.336,168.675z"/>
				<path style="fill:#FF8775;" d="M109.531,335.936c2.605-0.553,5.418-1.964,6.794-4.245c2.341,1.453,3.213,4.4,4.996,6.5
					c0.205,0.241,0.462,0.49,0.779,0.485c0.516-0.009,0.754-0.638,0.828-1.149c0.793-5.428-1.729-11.368-6.342-14.336
					c2.254,1.447,4.549,2.931,6.238,5.01c1.182,1.455,2.068,3.199,3.582,4.303c0.152,0.111,0.329,0.22,0.516,0.196
					c0.196-0.025,0.345-0.19,0.445-0.361c0.518-0.887,0.166-2.012-0.246-2.953c-2.218-5.068-5.796-9.285-10.428-12.31
					c5.356,1.364,10.198,4.66,13.432,9.142c0.329,0.456,0.662,0.942,1.163,1.199c0.5,0.257,1.223,0.18,1.487-0.316
					c0.111-0.209,0.125-0.454,0.125-0.69c0.001-2.345-1.099-4.557-2.445-6.477c-3.393-4.843-8.481-8.638-14.208-10.11
					c5.619,0.363,11.092,2.694,15.247,6.495c1.141,1.044,2.195,2.202,3.491,3.047c0.15,0.098,0.326,0.195,0.499,0.15
					c0.31-0.08,0.34-0.505,0.292-0.822c-0.637-4.195-3.258-7.968-6.755-10.371c-3.497-2.403-7.814-4.448-11.928-3.412
					c0,0-3.032,2.541-5.524,6.249c-2.492,3.708-5.111,7.59-5.111,7.59l-4.349,16.482
					C102.107,335.233,106.925,336.489,109.531,335.936z"/>
				<path style="fill:#FF8775;" d="M204.599,332.358c-2.605-0.553-5.418-1.964-6.793-4.245c-2.341,1.453-3.213,4.4-4.996,6.5
					c-0.205,0.241-0.462,0.49-0.779,0.485c-0.516-0.009-0.754-0.638-0.828-1.149c-0.793-5.427,1.729-11.368,6.342-14.336
					c-2.254,1.448-4.549,2.931-6.238,5.01c-1.182,1.455-2.068,3.199-3.582,4.303c-0.152,0.111-0.329,0.22-0.516,0.196
					c-0.197-0.025-0.345-0.19-0.445-0.361c-0.518-0.887-0.166-2.012,0.246-2.953c2.218-5.068,5.796-9.286,10.428-12.31
					c-5.356,1.364-10.199,4.66-13.432,9.142c-0.329,0.456-0.662,0.942-1.162,1.199c-0.5,0.257-1.224,0.18-1.487-0.316
					c-0.111-0.209-0.125-0.454-0.125-0.69c-0.001-2.345,1.099-4.557,2.444-6.477c3.393-4.843,8.481-8.638,14.208-10.11
					c-5.619,0.363-11.092,2.694-15.247,6.495c-1.141,1.044-2.195,2.202-3.491,3.047c-0.15,0.098-0.326,0.195-0.499,0.15
					c-0.31-0.081-0.34-0.505-0.292-0.822c0.637-4.195,3.258-7.968,6.755-10.371c3.497-2.403,7.814-4.449,11.928-3.412
					c0,0,3.032,2.541,5.524,6.249c2.492,3.708,5.111,7.59,5.111,7.59l4.349,16.482C212.023,331.655,207.205,332.912,204.599,332.358
					z"/>
				<g style="opacity:0.25;">
					<g>
						<path style="fill:#FFFFFF;" d="M92.464,119.928c2.811,1.242,6.017,0.891,8.852-0.005c2.88-0.885,5.553-2.367,7.857-4.283
							c2.326-1.894,4.254-4.252,5.696-6.865c1.467-2.605,2.314-5.523,2.626-8.471l0.082-0.777l0.587,0.506
							c1.79,1.543,4.156,2.351,6.519,2.377c2.367,0.035,4.742-0.677,6.692-2.013c1.964-1.337,3.522-3.233,4.589-5.364
							c1.076-2.13,1.699-4.495,1.839-6.886l0.135-2.299l0.741,2.168c0.414,1.212,0.478,2.394,0.684,3.523
							c0.098,0.582,0.219,1.068,0.428,1.628l0.589,1.643c0.788,2.173,1.933,4.176,3.67,5.664c0.843,0.759,1.794,1.403,2.814,1.909
							c1.017,0.506,2.084,0.936,3.2,1.18c2.219,0.536,4.576,0.497,6.766-0.154l0.352-0.105l0.052,0.356
							c0.276,1.909,0.986,3.761,1.977,5.432c0.999,1.665,2.279,3.184,3.853,4.332c3.19,2.269,7.094,3.555,11.046,3.66
							c-3.954,0.017-7.93-1.142-11.259-3.355c-1.666-1.129-3.031-2.662-4.085-4.368c-1.053-1.708-1.823-3.606-2.15-5.609
							l0.404,0.251c-2.295,0.728-4.775,0.812-7.121,0.289c-2.344-0.514-4.583-1.597-6.391-3.203
							c-1.857-1.564-3.122-3.759-3.933-5.973l-0.606-1.662c-0.207-0.536-0.379-1.188-0.474-1.763
							c-0.215-1.171-0.304-2.355-0.663-3.366l0.876-0.131c-0.135,2.512-0.764,5.004-1.902,7.26
							c-1.141,2.248-2.811,4.262-4.923,5.683c-2.114,1.429-4.667,2.177-7.212,2.125c-2.54-0.042-5.098-0.929-7.033-2.616
							l0.669-0.271c-0.324,3.073-1.288,6.076-2.837,8.732c-1.533,2.665-3.552,5.045-5.963,6.939c-2.38,1.933-5.168,3.34-8.109,4.148
							C98.499,121.014,95.235,121.26,92.464,119.928z"/>
					</g>
					<g>
						<path style="fill:#FFFFFF;" d="M99.341,123.161c-0.025,2.122-0.602,4.23-1.514,6.163c-0.925,1.933-2.173,3.694-3.535,5.335
							c-2.74,3.296-6.101,5.942-9.046,8.926c-3.005,2.899-5.697,6.238-6.911,10.221c-1.208,3.962-0.908,8.384,0.819,12.246
							c-1.047-1.844-1.685-3.919-1.968-6.042c-0.251-2.129-0.093-4.311,0.45-6.403c1.127-4.226,3.956-7.709,6.946-10.693
							c3.053-2.976,6.369-5.605,9.164-8.73c1.402-1.552,2.684-3.225,3.671-5.069C98.445,127.292,99.103,125.267,99.341,123.161z"/>
					</g>
					<g>
						<path style="fill:#FFFFFF;" d="M99.022,160.468c-0.417,1.309-1.123,2.515-1.896,3.655c-0.798,1.127-1.696,2.173-2.576,3.215
							c-1.754,2.077-3.557,4.133-4.476,6.615c-0.962,2.441-1.151,5.228-0.201,7.679c0.965,2.426,3.059,4.49,5.726,5.167
							c-1.369-0.136-2.683-0.734-3.8-1.578c-1.097-0.876-1.986-2.016-2.593-3.303c-1.208-2.616-1.027-5.686-0.012-8.305
							c1.024-2.675,2.943-4.799,4.819-6.759c0.948-0.986,1.89-1.963,2.747-3.011C97.642,162.816,98.409,161.693,99.022,160.468z"/>
					</g>
					<g>
						<path style="fill:#FFFFFF;" d="M167.825,133.18c0.71,3.766,2.172,7.353,4.324,10.461c1.086,1.544,2.279,3.015,3.658,4.301
							c1.359,1.307,2.9,2.387,4.462,3.527c0.768,0.585,1.528,1.199,2.237,1.883c0.36,0.336,0.689,0.708,1.004,1.09
							c0.333,0.368,0.613,0.775,0.893,1.183c1.112,1.635,1.848,3.508,2.203,5.43c0.752,3.852,0.177,7.844-1.272,11.385
							c0.539-1.84,0.909-3.72,1.003-5.616c0.131-1.889-0.003-3.794-0.441-5.617c-0.449-1.814-1.121-3.585-2.203-5.099
							c-1.05-1.534-2.453-2.769-3.991-3.886c-1.513-1.139-3.103-2.288-4.489-3.662c-1.394-1.358-2.645-2.868-3.667-4.521
							c-1.029-1.646-1.896-3.392-2.526-5.221C168.413,136.984,167.978,135.093,167.825,133.18z"/>
					</g>
					<g>
						<path style="fill:#FFFFFF;" d="M163.532,193.165c1.268-1.037,2.173-2.385,2.753-3.833c0.567-1.455,0.82-3.026,0.702-4.568
							c-0.101-1.552-0.546-3.077-1.192-4.52c-0.659-1.44-1.509-2.813-2.498-4.113c2.503,2.072,4.376,5.157,4.631,8.566
							c0.111,1.699-0.216,3.423-0.974,4.934C166.215,191.147,165.003,192.439,163.532,193.165z"/>
					</g>
				</g>
			</g>
		</g>
		<g>
			<g>
				<path style="fill:#41007C;" d="M65.295,372.52l-0.925-3.018c-0.582-1.898-0.831-3.555-0.745-4.973
					c0.085-1.417,0.357-2.694,0.819-3.832c0.461-1.138,0.96-2.183,1.498-3.138c0.734-1.263,1.357-2.481,1.869-3.656
					c0.512-1.174,0.535-2.521,0.07-4.039c-0.256-0.835-0.68-1.473-1.272-1.915c-0.592-0.441-1.232-0.733-1.919-0.876
					c-0.688-0.142-1.316-0.126-1.885,0.048c-1.102,0.338-1.943,0.876-2.526,1.615c-0.583,0.739-0.99,1.581-1.22,2.523
					c-0.231,0.943-0.382,1.903-0.456,2.881l-1.551,0.475l-5.939-1.543c0.018-0.753,0.149-1.748,0.393-2.986
					c0.244-1.237,0.724-2.547,1.443-3.93c0.718-1.382,1.754-2.676,3.108-3.88c1.354-1.203,3.132-2.144,5.334-2.819
					c2.164-0.663,4.222-0.889,6.177-0.678c1.954,0.211,3.679,0.928,5.175,2.151c1.496,1.223,2.628,3.087,3.396,5.593
					c0.64,2.088,0.873,3.865,0.699,5.329c-0.174,1.465-0.542,2.773-1.103,3.92c-0.562,1.148-1.127,2.287-1.694,3.415
					c-0.448,0.844-0.846,1.745-1.196,2.703c-0.35,0.959-0.539,2.003-0.566,3.132c-0.028,1.13,0.18,2.416,0.622,3.858l0.366,1.196
					L65.295,372.52z M72.963,383.313c-1.367,0.419-2.6,0.392-3.7-0.081c-1.101-0.473-1.836-1.316-2.208-2.531
					c-0.361-1.176-0.217-2.3,0.43-3.371c0.647-1.07,1.635-1.809,2.965-2.217c1.328-0.407,2.542-0.343,3.64,0.192
					c1.098,0.536,1.828,1.392,2.189,2.568c0.372,1.215,0.254,2.32-0.354,3.316C75.317,382.187,74.33,382.894,72.963,383.313z"/>
			</g>
			<g>
				<path style="fill:#905DF3;" d="M63.744,372.996l-0.925-3.018c-0.582-1.898-0.831-3.555-0.746-4.973
					c0.084-1.417,0.358-2.694,0.819-3.832c0.461-1.138,0.96-2.183,1.499-3.138c0.734-1.262,1.357-2.481,1.869-3.656
					c0.512-1.174,0.536-2.52,0.07-4.039c-0.256-0.835-0.68-1.473-1.272-1.915c-0.592-0.441-1.232-0.733-1.919-0.876
					c-0.688-0.142-1.316-0.126-1.885,0.048c-1.102,0.338-1.943,0.876-2.526,1.615c-0.583,0.739-0.99,1.58-1.22,2.523
					c-0.231,0.943-0.382,1.903-0.456,2.881l-7.49-1.068c0.018-0.753,0.149-1.748,0.393-2.986c0.244-1.237,0.724-2.547,1.443-3.93
					c0.718-1.382,1.754-2.676,3.108-3.88c1.354-1.203,3.132-2.143,5.334-2.818c2.164-0.663,4.222-0.889,6.177-0.678
					c1.954,0.211,3.679,0.928,5.175,2.151c1.496,1.223,2.628,3.087,3.396,5.593c0.64,2.088,0.873,3.865,0.699,5.329
					c-0.174,1.465-0.542,2.772-1.103,3.92c-0.562,1.148-1.127,2.287-1.694,3.416c-0.448,0.844-0.846,1.745-1.196,2.703
					c-0.35,0.959-0.539,2.002-0.566,3.132c-0.028,1.129,0.18,2.416,0.622,3.858l0.366,1.195L63.744,372.996z M71.412,383.788
					c-1.366,0.419-2.6,0.392-3.7-0.081c-1.101-0.473-1.836-1.316-2.208-2.531c-0.36-1.176-0.217-2.3,0.431-3.371
					c0.647-1.07,1.635-1.809,2.964-2.217c1.328-0.407,2.542-0.343,3.64,0.192c1.098,0.536,1.828,1.392,2.189,2.568
					c0.373,1.215,0.254,2.32-0.354,3.316C73.766,382.662,72.779,383.37,71.412,383.788z"/>
			</g>
		</g>
		<g>
			<path style="fill:#41007C;" d="M45.675,211.895l-1.205-3.537c-0.757-2.225-1.113-4.176-1.064-5.857
				c0.048-1.679,0.325-3.201,0.829-4.565c0.504-1.363,1.056-2.618,1.659-3.768c0.823-1.521,1.515-2.986,2.078-4.394
				c0.563-1.408,0.542-3.002-0.064-4.782c-0.333-0.978-0.859-1.718-1.575-2.219c-0.717-0.5-1.485-0.822-2.303-0.966
				c-0.819-0.143-1.561-0.101-2.229,0.126c-1.291,0.44-2.267,1.107-2.93,2.003c-0.663,0.896-1.114,1.906-1.352,3.03
				c-0.239,1.124-0.383,2.266-0.435,3.425l-8.902-0.99c-0.006-0.892,0.113-2.074,0.356-3.547c0.243-1.472,0.764-3.04,1.564-4.703
				c0.799-1.661,1.978-3.23,3.537-4.705c1.558-1.473,3.628-2.651,6.208-3.53c2.536-0.864,4.963-1.206,7.284-1.028
				c2.319,0.178,4.387,0.964,6.202,2.357c1.815,1.393,3.223,3.557,4.223,6.494c0.833,2.448,1.174,4.541,1.022,6.281
				c-0.152,1.74-0.54,3.3-1.162,4.678c-0.623,1.379-1.25,2.747-1.88,4.103c-0.499,1.015-0.938,2.095-1.317,3.242
				c-0.38,1.147-0.564,2.389-0.556,3.727c0.009,1.337,0.301,2.852,0.877,4.543l0.477,1.401L45.675,211.895z M55.142,224.386
				c-1.602,0.546-3.062,0.559-4.381,0.04c-1.32-0.519-2.22-1.49-2.706-2.914c-0.469-1.379-0.341-2.714,0.386-4.005
				c0.727-1.29,1.869-2.201,3.427-2.731c1.557-0.53,2.995-0.499,4.315,0.095c1.319,0.594,2.214,1.581,2.684,2.959
				c0.485,1.424,0.385,2.736-0.298,3.937C57.886,222.967,56.744,223.84,55.142,224.386z"/>
		</g>
		<g>
			<path style="fill:#41007C;" d="M233.886,372.856l0.355-2.884c0.224-1.814,0.636-3.3,1.24-4.46
				c0.603-1.159,1.312-2.13,2.127-2.914c0.814-0.783,1.626-1.475,2.438-2.075c1.091-0.785,2.072-1.576,2.944-2.371
				c0.872-0.795,1.396-1.917,1.575-3.369c0.098-0.797-0.019-1.494-0.351-2.087c-0.332-0.593-0.76-1.078-1.284-1.456
				c-0.525-0.377-1.058-0.6-1.602-0.667c-1.053-0.13-1.962,0.007-2.73,0.409c-0.768,0.403-1.426,0.957-1.973,1.662
				c-0.548,0.706-1.036,1.456-1.465,2.25l-5.895-3.71c0.298-0.626,0.782-1.413,1.451-2.362c0.669-0.948,1.565-1.869,2.688-2.762
				c1.122-0.892,2.479-1.591,4.069-2.095c1.59-0.503,3.437-0.626,5.542-0.367c2.067,0.255,3.882,0.838,5.446,1.749
				c1.563,0.911,2.744,2.161,3.542,3.751c0.798,1.59,1.05,3.582,0.755,5.976c-0.246,1.995-0.717,3.576-1.413,4.742
				c-0.696,1.166-1.496,2.127-2.399,2.881c-0.903,0.754-1.806,1.499-2.706,2.235c-0.693,0.541-1.366,1.149-2.02,1.823
				c-0.654,0.674-1.204,1.481-1.652,2.42c-0.447,0.939-0.756,2.098-0.926,3.476l-0.141,1.142L233.886,372.856z M236.279,384.806
				c-1.306-0.161-2.333-0.646-3.079-1.457c-0.748-0.811-1.049-1.795-0.906-2.957c0.139-1.124,0.681-2.015,1.628-2.672
				c0.946-0.657,2.054-0.907,3.324-0.75c1.269,0.156,2.266,0.666,2.988,1.528c0.722,0.862,1.014,1.856,0.875,2.98
				c-0.143,1.161-0.658,2.045-1.543,2.655C238.68,384.743,237.585,384.967,236.279,384.806z"/>
		</g>
		<g>
			<g>
				<path style="fill:#41007C;" d="M214.653,205.025l0.926-3.714c0.582-2.335,1.359-4.213,2.334-5.633
					c0.973-1.419,2.056-2.576,3.247-3.47c1.19-0.894,2.363-1.668,3.519-2.323c1.552-0.853,2.962-1.729,4.228-2.63
					c1.266-0.9,2.132-2.284,2.598-4.153c0.256-1.027,0.214-1.956-0.124-2.785c-0.34-0.829-0.822-1.532-1.446-2.11
					c-0.626-0.577-1.288-0.954-1.989-1.128c-1.356-0.338-2.566-0.305-3.634,0.099c-1.068,0.404-2.017,1.023-2.845,1.858
					c-0.829,0.836-1.587,1.738-2.275,2.708l-1.908-0.476l-5.206-5.317c0.49-0.771,1.248-1.723,2.275-2.856
					c1.027-1.132,2.345-2.193,3.956-3.181c1.61-0.987,3.495-1.683,5.656-2.088c2.159-0.404,4.594-0.269,7.304,0.407
					c2.663,0.664,4.942,1.716,6.842,3.157c1.898,1.441,3.242,3.264,4.032,5.471c0.79,2.206,0.8,4.851,0.032,7.934
					c-0.641,2.57-1.509,4.561-2.606,5.974c-1.097,1.414-2.297,2.542-3.597,3.383c-1.302,0.842-2.601,1.672-3.895,2.49
					c-0.993,0.597-1.97,1.283-2.932,2.06c-0.964,0.777-1.812,1.744-2.546,2.9c-0.735,1.156-1.324,2.623-1.766,4.397l-0.367,1.471
					L214.653,205.025z M215.872,221.033c-1.682-0.419-2.947-1.218-3.794-2.397c-0.848-1.179-1.085-2.515-0.712-4.011
					c0.361-1.448,1.212-2.526,2.555-3.233c1.341-0.708,2.83-0.857,4.466-0.45c1.634,0.407,2.856,1.233,3.662,2.476
					c0.806,1.243,1.029,2.589,0.668,4.037c-0.373,1.496-1.187,2.569-2.441,3.225C219.021,221.334,217.553,221.452,215.872,221.033z"
					/>
			</g>
			<g>
				<path style="fill:#905DF3;" d="M212.744,204.549l0.926-3.714c0.582-2.335,1.359-4.213,2.335-5.633
					c0.973-1.419,2.056-2.576,3.247-3.47c1.19-0.894,2.362-1.668,3.519-2.323c1.552-0.853,2.962-1.729,4.228-2.63
					c1.266-0.9,2.132-2.284,2.598-4.153c0.256-1.027,0.214-1.956-0.125-2.785c-0.34-0.829-0.822-1.532-1.446-2.11
					c-0.626-0.577-1.288-0.954-1.989-1.128c-1.355-0.338-2.566-0.305-3.634,0.099c-1.068,0.404-2.017,1.023-2.845,1.858
					c-0.829,0.836-1.587,1.738-2.275,2.708l-7.115-5.793c0.49-0.771,1.248-1.723,2.275-2.856c1.027-1.132,2.345-2.193,3.956-3.181
					c1.61-0.987,3.495-1.683,5.656-2.088c2.159-0.404,4.594-0.269,7.304,0.407c2.663,0.664,4.942,1.716,6.842,3.157
					c1.898,1.441,3.242,3.264,4.032,5.471c0.79,2.206,0.8,4.851,0.032,7.934c-0.641,2.57-1.509,4.561-2.606,5.974
					c-1.097,1.414-2.297,2.542-3.597,3.383c-1.302,0.842-2.601,1.672-3.895,2.49c-0.993,0.597-1.97,1.283-2.932,2.06
					c-0.964,0.777-1.812,1.744-2.547,2.9c-0.735,1.156-1.324,2.623-1.766,4.397l-0.367,1.471L212.744,204.549z M213.963,220.557
					c-1.682-0.419-2.947-1.218-3.794-2.397c-0.848-1.179-1.085-2.515-0.712-4.011c0.361-1.447,1.212-2.526,2.555-3.233
					c1.341-0.708,2.83-0.857,4.466-0.45c1.634,0.407,2.856,1.233,3.662,2.476c0.806,1.243,1.029,2.589,0.668,4.037
					c-0.373,1.496-1.187,2.569-2.441,3.225C217.113,220.859,215.645,220.976,213.963,220.557z"/>
			</g>
		</g>
	</g>
</g>
</svg>
